<svg version="1.1" id="Layer_1" xmlns="http://www.w3.org/2000/svg" xmlns:xlink="http://www.w3.org/1999/xlink" x="0px" y="0px"
	 width="100%" viewBox="0 0 518 484" enable-background="new 0 0 518 484" xml:space="preserve">
<path fill="#FFFEFE" opacity="1.000000" stroke="none" 
	d="
M313.000000,485.000000 
	C208.666687,485.000000 104.833382,485.000000 1.000056,485.000000 
	C1.000037,323.666718 1.000037,162.333466 1.000019,1.000142 
	C173.666565,1.000095 346.333130,1.000095 518.999756,1.000047 
	C518.999878,162.333191 518.999878,323.666382 518.999939,484.999786 
	C450.500000,485.000000 382.000000,485.000000 313.000000,485.000000 
M167.229752,423.236847 
	C167.229752,423.236847 167.257385,423.179596 167.709381,422.916046 
	C167.731628,422.801758 167.793320,422.677643 167.767883,422.575195 
	C167.715027,422.362244 167.615952,422.160797 167.639999,421.029694 
	C167.648331,390.880554 167.679596,360.731354 167.657700,330.582245 
	C167.640396,306.765869 167.557739,282.949554 167.795410,258.250702 
	C167.692093,255.786362 167.588776,253.322006 167.631454,249.951141 
	C167.603455,243.604019 167.575455,237.256882 168.218246,230.566162 
	C168.441986,230.451935 168.665741,230.337708 169.172623,230.935852 
	C170.869781,233.599838 172.550034,236.274796 174.266876,238.926056 
	C185.100296,255.655762 195.941864,272.380188 206.876312,289.752502 
	C207.528610,290.604370 208.180893,291.456268 208.942764,292.981812 
	C218.237213,307.356293 227.531662,321.730774 236.989807,336.827545 
	C238.288528,339.878021 240.363556,341.122711 243.891190,341.023804 
	C253.469528,340.755280 263.060669,340.969421 272.645813,340.887421 
	C273.999908,340.875854 275.348969,340.279480 277.228943,339.489746 
	C300.162079,303.652252 323.095245,267.814728 346.468597,231.807281 
	C346.764893,231.577744 346.830933,231.294479 347.141632,230.396118 
	C347.594818,230.223389 348.048035,230.050644 348.309814,230.819458 
	C348.341248,231.484634 348.400299,232.149841 348.400085,232.815002 
	C348.382416,294.753876 348.348602,356.692780 348.398010,418.631592 
	C348.399384,420.370209 349.286682,422.108093 350.360809,424.098328 
	C350.567688,424.033142 350.774536,423.967957 351.916870,423.996948 
	C380.620728,423.966309 409.324615,423.935638 438.628632,424.046997 
	C438.841125,423.008606 439.053619,421.970245 439.345642,420.006012 
	C439.349976,381.315430 439.357849,342.624847 439.346375,303.934265 
	C439.345856,302.284088 439.166168,300.633942 439.305145,298.208099 
	C439.220642,297.140289 439.136139,296.072449 439.278442,294.089813 
	C439.215942,270.390717 439.153412,246.691635 439.342987,222.145233 
	C439.235504,220.097275 439.128021,218.049316 439.262695,215.090210 
	C439.268433,165.747955 439.274200,116.405693 439.579193,66.831787 
	C439.467346,66.505402 439.355499,66.179008 439.208527,65.354874 
	C439.208527,65.354874 438.866730,64.991364 438.498749,64.223686 
	C409.362579,64.146523 380.226410,64.040421 351.090424,64.084953 
	C349.753876,64.086998 348.004211,65.129471 347.169769,66.233620 
	C345.387726,68.591705 344.080261,71.308464 342.038269,74.235161 
	C339.104706,79.171211 336.171173,84.107269 332.758606,89.572617 
	C309.541656,127.215370 286.325623,164.858688 263.105865,202.499695 
	C261.498291,205.105667 259.862793,207.694443 258.041107,210.610046 
	C257.217987,209.462341 256.806580,208.956604 256.467560,208.406281 
	C227.740433,161.777405 198.982330,115.167480 170.377609,68.463623 
	C168.423798,65.273582 166.574173,63.849903 162.635925,63.880634 
	C135.645813,64.091263 108.653244,63.976334 81.661591,64.028381 
	C80.141258,64.031319 78.622002,64.583206 76.720764,65.765312 
	C76.702217,104.693352 76.681870,143.621399 76.677391,182.549438 
	C76.677292,183.370255 76.860199,184.191116 76.733948,185.650345 
	C76.798088,186.091568 76.862228,186.532806 76.664284,187.334595 
	C76.746056,187.900436 76.827820,188.466293 76.741600,189.520813 
	C76.805069,189.680923 76.868546,189.841049 76.699516,190.914078 
	C76.774414,215.272903 76.849304,239.631714 76.645172,264.501129 
	C76.734970,265.663849 76.824760,266.826569 76.720703,268.911224 
	C76.698112,316.624786 76.672691,364.338348 76.662849,412.051910 
	C76.662437,414.040009 76.807594,416.028107 76.626305,418.685486 
	C76.488396,421.771057 75.851173,425.290375 81.942780,423.968903 
	C109.982796,423.931793 138.022812,423.894684 166.567230,424.026489 
	C166.780975,423.783234 166.994705,423.540009 167.229752,423.236847 
z"/>
<path fill="#E2100B" opacity="1.000000" stroke="none" 
	d="
M236.826111,336.105255 
	C227.531662,321.730774 218.237213,307.356293 209.068741,292.366150 
	C211.802490,290.538452 214.410263,289.326447 217.657776,287.817108 
	C215.443100,285.709686 214.330978,284.651428 213.508133,283.868439 
	C211.107147,285.737823 208.943939,287.422119 206.780731,289.106384 
	C195.941864,272.380188 185.100296,255.655762 174.266876,238.926056 
	C172.550034,236.274796 170.869781,233.599838 169.010956,230.339325 
	C168.272049,229.399307 167.694809,229.055817 167.075150,228.367813 
	C165.635681,225.576126 164.341766,223.062912 162.824570,220.692657 
	C154.056686,206.994873 145.244492,193.325424 136.429886,179.657593 
	C131.914154,172.655548 127.362213,165.676834 122.172310,157.679291 
	C122.172310,178.389389 122.172310,197.652710 122.084885,217.192932 
	C121.945572,217.656326 121.893677,217.842819 121.557350,218.188965 
	C117.484932,222.086578 113.745209,225.875244 109.891411,229.544098 
	C107.461502,231.857391 108.058731,233.396774 110.216698,234.399689 
	C114.297272,231.448502 118.056992,228.729370 121.876167,226.474670 
	C121.897903,252.294601 121.860191,277.650085 121.474129,302.994080 
	C120.040749,302.176910 118.955719,301.371277 117.656868,300.406891 
	C109.554855,308.323120 101.414879,316.349945 93.181091,324.279419 
	C90.494179,326.867004 90.288322,328.887146 94.432610,331.001709 
	C99.430237,325.845154 105.365547,321.215485 109.257179,315.252136 
	C112.617249,310.103333 117.293854,307.372589 121.885895,304.508728 
	C121.961296,329.964081 122.022881,354.957397 121.935745,379.950195 
	C121.924980,383.039734 122.821327,385.023224 125.255951,387.111877 
	C139.006241,398.908203 152.529968,410.968689 166.079468,423.166199 
	C166.028030,423.393280 166.062836,423.857574 166.062836,423.857605 
	C138.022812,423.894684 109.982796,423.931793 81.491943,423.487061 
	C81.767448,421.989227 82.304443,420.720306 83.257324,420.006927 
	C85.653999,418.212677 88.595238,416.862457 87.327744,413.021576 
	C88.630798,413.220032 89.597977,413.388519 90.790817,413.596313 
	C90.458267,412.096436 90.224960,411.044220 90.346512,410.026123 
	C91.732895,410.018860 93.485367,410.302551 93.675156,409.881622 
	C94.666107,407.683868 95.260109,405.307159 96.354050,402.956665 
	C98.888901,401.899841 101.061890,400.879028 103.567131,399.702118 
	C102.368446,398.555756 101.451843,397.679169 100.782181,397.038727 
	C99.643417,397.850494 98.442345,398.376404 97.747559,399.288147 
	C96.936775,400.352112 96.568199,401.753082 95.633560,403.012054 
	C91.349922,403.725220 89.758835,406.175446 89.635345,410.013977 
	C88.511093,411.016083 87.759567,412.012115 86.629662,413.009369 
	C83.129166,414.679138 80.007050,416.347687 76.884933,418.016205 
	C76.807594,416.028107 76.662437,414.040009 76.662849,412.051910 
	C76.672691,364.338348 76.698112,316.624786 77.161743,268.403748 
	C78.391701,266.389893 79.180611,264.883514 79.554367,264.169830 
	C79.577904,264.188843 78.595833,263.396240 77.829224,262.777527 
	C77.839905,262.763184 77.382050,263.376862 76.924194,263.990540 
	C76.849304,239.631714 76.774414,215.272903 77.048691,190.357025 
	C77.599152,189.534164 77.800438,189.268341 78.000862,189.001251 
	C78.000000,189.000000 78.002792,189.002441 78.249550,188.826385 
	C78.771797,188.060165 78.937187,187.048523 79.339409,186.943451 
	C84.771477,185.524414 87.513947,181.500824 89.707260,176.774658 
	C90.204384,175.703461 91.361565,174.854324 92.374397,174.124176 
	C94.514656,172.581253 96.760239,171.184433 99.237267,169.546021 
	C97.464836,167.974854 96.372719,167.006744 94.884186,165.687241 
	C88.900688,172.137451 82.929207,178.574692 76.957733,185.011948 
	C76.860199,184.191116 76.677292,183.370255 76.677391,182.549438 
	C76.681870,143.621399 76.702217,104.693352 77.211990,65.481445 
	C85.112228,70.483315 92.521248,75.769043 99.949471,81.289658 
	C99.968666,81.524551 100.003151,81.995468 99.699684,82.149422 
	C94.417252,86.990730 89.438286,91.678078 84.140793,96.665314 
	C86.308891,98.639938 87.559357,99.778816 88.809822,100.917694 
	C88.254257,100.078377 87.698685,99.239067 87.143120,98.399750 
	C89.779305,96.931854 92.696022,95.803795 94.984467,93.914650 
	C98.233017,91.232933 101.019081,87.990967 104.317215,85.009155 
	C105.044853,85.102402 105.458054,85.174889 106.056267,85.521606 
	C114.622360,92.678085 123.967117,98.477448 129.739944,108.193207 
	C132.420807,112.705154 135.916962,116.732704 139.033508,121.229965 
	C139.022354,121.646912 139.021225,121.813721 138.715668,122.128159 
	C134.761810,126.036499 131.089371,129.775253 127.470131,133.564804 
	C124.519485,136.654266 124.551773,136.717255 127.795181,139.238327 
	C132.568451,134.785309 137.296112,130.374817 142.259445,125.988937 
	C142.495117,126.013535 142.966217,126.065140 143.019745,126.405701 
	C143.507507,127.438583 143.909912,128.153397 144.380692,128.819901 
	C153.303696,141.452240 162.234756,154.078873 171.006561,167.039398 
	C168.592194,169.929321 166.335419,172.486542 163.686264,175.488388 
	C164.879913,176.698959 165.881470,177.714706 166.400452,178.241028 
	C169.693512,175.849243 172.355026,173.916153 175.250549,172.009247 
	C175.484543,172.035431 175.951630,172.095490 176.083130,172.408020 
	C176.750107,173.561539 177.245636,174.431244 177.826828,175.239380 
	C199.061539,204.766586 220.289246,234.298859 241.556320,263.802734 
	C246.829010,271.117554 252.232849,278.337860 257.830048,285.946381 
	C259.907196,283.083862 261.560211,280.810059 263.208954,278.533142 
	C288.832642,243.146484 314.482300,207.778549 340.060608,172.359131 
	C346.564697,163.352646 352.841736,154.182205 359.496094,144.909576 
	C361.803680,141.800980 363.838287,138.869934 365.941010,135.715881 
	C366.009094,135.492889 366.079681,135.031906 366.048828,135.016479 
	C366.018005,135.001038 366.026733,135.069473 366.263428,134.962463 
	C366.707184,134.585403 366.914246,134.315338 367.411957,133.889221 
	C368.861603,131.914352 370.020569,130.095566 371.427856,128.025711 
	C375.122040,123.212105 378.817230,118.814362 381.964233,114.054214 
	C389.559509,102.565704 398.493439,92.533623 411.142761,85.941589 
	C412.660889,86.565063 413.809357,87.122192 414.450470,87.433182 
	C417.168640,85.395584 419.898224,83.841286 421.982452,81.668053 
	C424.875824,78.651085 427.284851,75.169609 429.955444,71.926819 
	C430.009674,71.966660 429.889709,71.907295 430.224609,71.902878 
	C431.040070,71.258522 431.520599,70.618576 432.196350,69.718292 
	C434.549927,67.969101 436.708344,66.480240 438.866730,64.991364 
	C438.866730,64.991364 439.208527,65.354874 439.146729,65.908432 
	C439.149902,66.662468 439.214905,66.862946 439.279938,67.063431 
	C439.274200,116.405693 439.268433,165.747955 438.793762,215.575821 
	C436.994019,217.511902 435.663208,218.962387 434.332397,220.412872 
	C435.918579,221.272766 437.504730,222.132660 439.090912,222.992554 
	C439.153412,246.691635 439.215942,270.390717 438.792236,294.548401 
	C437.033997,295.679291 435.509064,296.096771 434.532104,297.066376 
	C429.280121,302.278870 424.335907,307.812012 418.936523,312.861359 
	C415.759705,315.832184 417.340637,317.110565 419.474060,318.568512 
	C421.872925,316.506714 423.981689,314.819580 425.933716,312.967224 
	C427.021576,311.934937 427.675812,310.404633 428.839142,309.503967 
	C430.137238,308.498932 432.188934,308.301331 433.208069,307.136108 
	C435.401581,304.628143 437.143311,301.725128 439.069946,298.983795 
	C439.166168,300.633942 439.345856,302.284088 439.346375,303.934265 
	C439.357849,342.624847 439.349976,381.315430 439.158264,420.752930 
	C438.656769,422.301544 438.342651,423.103271 438.028503,423.905029 
	C409.324615,423.935638 380.620728,423.966309 351.337158,423.744141 
	C350.525177,423.269318 350.253815,423.116699 350.118103,422.743835 
	C350.630371,422.087097 350.936798,421.684326 351.310150,421.358154 
	C364.678955,409.677948 378.102936,398.059753 391.356140,386.249908 
	C392.756256,385.002289 393.907166,382.635986 393.912018,380.785370 
	C394.010498,343.204407 393.924591,305.623016 393.961853,267.769714 
	C394.098083,267.314240 394.148071,267.130707 394.480591,266.785034 
	C397.938354,260.711670 403.137115,256.687714 408.017487,252.639877 
	C406.948975,251.505005 405.999268,250.496338 405.301788,249.755554 
	C401.584900,252.523560 397.906952,255.262604 394.157715,257.538025 
	C394.131012,232.048630 394.175568,207.022842 394.549683,182.045135 
	C396.006348,182.652145 397.133423,183.211060 397.834686,183.558807 
	C407.294128,174.517776 416.420929,165.794678 424.618195,157.959976 
	C423.432526,156.645386 422.309967,155.400772 421.109650,154.069946 
	C416.229279,158.801712 410.779541,164.220413 405.173218,169.471954 
	C401.641724,172.779922 397.875824,175.837631 394.146545,178.543365 
	C394.077972,171.692444 394.077972,165.305801 394.077972,158.311081 
	C393.040375,159.062088 392.561340,159.245941 392.337982,159.593903 
	C383.838623,172.835876 375.332855,186.073975 366.897430,199.356705 
	C363.190826,205.193222 359.633850,211.124756 355.801025,217.276688 
	C353.275452,221.685394 350.957825,225.830551 348.599548,229.959717 
	C348.558868,229.943710 348.501251,229.877930 348.501251,229.877930 
	C348.048035,230.050644 347.594818,230.223389 346.690796,230.760025 
	C345.997437,231.365707 345.926941,231.650131 346.028381,231.977203 
	C323.095245,267.814728 300.162079,303.652252 276.516418,339.715027 
	C267.150757,339.949615 258.496033,339.864258 249.845398,340.014618 
	C246.351715,340.075317 243.358337,339.767487 241.076904,336.565033 
	C240.527451,335.793762 238.288239,336.226318 236.826111,336.105255 
M419.769714,398.145081 
	C423.106537,394.449127 426.443329,390.753204 429.295715,387.593842 
	C428.692810,386.553406 427.961761,385.291748 426.525513,382.813171 
	C417.932526,391.998230 410.257690,400.555634 402.156555,408.688385 
	C398.881073,411.976685 399.873169,413.146179 402.900970,414.221313 
	C408.580078,408.863007 413.959656,403.787292 419.769714,398.145081 
M306.407867,273.827332 
	C308.462036,272.596649 310.516235,271.365967 311.733521,270.636658 
	C310.532440,269.176788 309.557343,267.991577 307.814789,265.873596 
	C299.525269,274.871490 291.023193,284.100098 282.312164,293.555511 
	C283.087799,294.368317 284.070526,295.398132 284.958466,296.328583 
	C287.737793,293.189087 289.974152,288.301941 292.991608,287.759399 
	C298.783905,286.718048 299.891235,282.576843 302.202667,278.861328 
	C303.236542,277.199371 304.549652,275.711151 306.407867,273.827332 
M247.123169,333.306946 
	C250.010101,331.005737 252.897049,328.704498 256.812195,325.583679 
	C254.383759,324.971191 252.571121,323.923920 251.841553,324.431976 
	C248.650925,326.653809 245.653214,329.204437 242.889709,331.942780 
	C242.359207,332.468414 243.197083,334.374969 243.403671,335.644470 
	C244.493729,335.055084 245.583801,334.465698 247.123169,333.306946 
z"/>
<path fill="#670F15" opacity="1.000000" stroke="none" 
	d="
M410.773132,85.875252 
	C398.493439,92.533623 389.559509,102.565704 381.964233,114.054214 
	C378.817230,118.814362 375.122040,123.212105 371.238708,127.738869 
	C369.719666,128.116287 368.347931,128.241653 367.604858,128.990677 
	C363.613312,133.014206 359.778198,137.192902 355.499939,141.730759 
	C356.903778,142.996307 358.063446,144.041702 359.223083,145.087097 
	C352.841736,154.182205 346.564697,163.352646 340.060608,172.359131 
	C314.482300,207.778549 288.832642,243.146484 263.208954,278.533142 
	C261.560211,280.810059 259.907196,283.083862 257.830048,285.946381 
	C252.232849,278.337860 246.829010,271.117554 241.556320,263.802734 
	C220.289246,234.298859 199.061539,204.766586 177.826828,175.239380 
	C177.245636,174.431244 176.750107,173.561539 176.142960,172.062943 
	C178.379669,169.085953 180.858063,166.909714 182.958542,164.415253 
	C186.556564,160.142410 189.918167,155.670532 193.553787,151.060638 
	C193.422745,150.936661 192.247147,149.824509 188.903214,146.661041 
	C183.277237,153.483139 177.714600,160.228424 171.902954,166.914505 
	C171.490692,166.805756 171.327423,166.756226 171.164139,166.706696 
	C162.234756,154.078873 153.303696,141.452240 144.380692,128.819901 
	C143.909912,128.153397 143.507507,127.438583 143.085907,126.049423 
	C146.835892,120.836601 150.573227,116.320618 154.269516,111.854240 
	C153.936142,111.496933 152.991531,110.484543 152.118546,109.548904 
	C147.739929,113.376938 143.391739,117.178383 139.043533,120.979836 
	C135.916962,116.732704 132.420807,112.705154 129.739944,108.193207 
	C123.967117,98.477448 114.622360,92.678085 106.097809,85.111603 
	C106.885635,82.420677 107.360321,79.924400 108.859299,78.526360 
	C110.914421,76.609619 113.746704,75.526138 116.439339,73.974083 
	C113.152824,70.088310 111.011093,71.204285 108.804558,73.221962 
	C105.893257,75.884071 102.892548,78.448410 99.930275,81.054779 
	C92.521248,75.769043 85.112228,70.483315 77.402725,65.038589 
	C78.622002,64.583206 80.141258,64.031319 81.661591,64.028381 
	C108.653244,63.976334 135.645813,64.091263 162.635925,63.880634 
	C166.574173,63.849903 168.423798,65.273582 170.377609,68.463623 
	C198.982330,115.167480 227.740433,161.777405 256.467560,208.406281 
	C256.806580,208.956604 257.217987,209.462341 258.041107,210.610046 
	C259.862793,207.694443 261.498291,205.105667 263.105865,202.499695 
	C286.325623,164.858688 309.541656,127.215370 333.305176,89.345657 
	C334.342712,89.168221 335.090912,89.449631 335.286377,89.232796 
	C338.696777,85.449814 342.039429,81.605759 345.267517,77.922554 
	C344.611816,76.936432 343.595093,75.407356 342.578369,73.878288 
	C344.080261,71.308464 345.387726,68.591705 347.169769,66.233620 
	C348.004211,65.129471 349.753876,64.086998 351.090424,64.084953 
	C380.226410,64.040421 409.362579,64.146523 438.682739,64.607529 
	C436.708344,66.480240 434.549927,67.969101 431.879150,69.762527 
	C430.874451,70.680489 430.382080,71.293892 429.889709,71.907295 
	C429.889709,71.907295 430.009674,71.966660 429.609161,71.971931 
	C423.063477,76.609886 416.918304,81.242569 410.773132,85.875252 
M309.593048,190.289322 
	C312.575867,191.882675 317.166107,189.016937 318.957916,184.699371 
	C319.819824,182.622528 320.747650,180.268219 322.367798,178.886017 
	C324.518188,177.051437 327.374481,176.044327 330.151581,174.562042 
	C328.397736,172.894562 327.293823,171.845001 326.189911,170.795441 
	C325.775726,170.381042 325.361542,169.966644 324.947357,169.552231 
	C320.612366,174.555176 316.198578,179.493195 311.989746,184.600128 
	C310.703369,186.160965 309.979980,188.185806 308.256622,190.005356 
	C306.553467,191.377380 304.602417,192.559952 303.312439,194.247772 
	C302.967621,194.698944 304.643005,196.694077 305.628204,198.388489 
	C307.152740,195.139847 311.064972,193.752075 309.593048,190.289322 
M212.256683,207.006119 
	C210.557495,208.365204 208.604050,209.530289 207.323456,211.208740 
	C206.967239,211.675629 208.603577,213.662796 209.386948,215.061676 
	C211.385666,213.264603 212.857300,211.941452 214.200500,210.733765 
	C213.772446,209.758621 213.387665,208.882050 213.661499,208.061142 
	C217.225281,210.305359 216.890366,205.508179 217.689651,205.487961 
	C224.736206,205.309708 223.451599,195.395264 230.356110,195.011688 
	C231.783798,194.932358 233.066040,192.234970 234.490906,190.660721 
	C232.859253,189.944336 231.264328,189.244095 229.707489,188.560562 
	C226.905457,191.100693 223.977875,193.338104 221.571945,196.040039 
	C218.494293,199.496307 215.837143,203.326996 212.256683,207.006119 
M254.611008,248.438568 
	C255.540359,247.379715 256.469727,246.320877 257.905701,244.684830 
	C260.709534,245.457947 261.753418,242.525314 263.001312,239.848099 
	C263.983734,237.740433 264.255524,235.483383 267.808868,235.340027 
	C269.551544,235.269730 271.163635,231.962784 272.871002,230.080780 
	C271.979858,229.369690 270.843903,228.463242 269.731476,227.575562 
	C262.677002,234.357956 255.798309,240.989883 248.895706,247.596832 
	C246.720184,249.679214 244.505768,251.694153 248.853790,253.650253 
	C250.725952,252.012070 252.454437,250.499619 254.611008,248.438568 
z"/>
<path fill="#670E14" opacity="1.000000" stroke="none" 
	d="
M121.822479,303.005585 
	C121.860191,277.650085 121.897903,252.294601 121.948380,226.102936 
	C122.025871,224.514450 122.090614,223.762131 122.520325,223.003143 
	C124.248398,222.154266 126.636864,221.481201 126.808220,220.442398 
	C127.920937,213.696899 135.843613,213.540558 138.160782,208.133301 
	C137.102249,206.888199 136.006195,205.598969 135.123016,204.560150 
	C130.665955,208.812500 126.419136,212.864258 122.172310,216.916031 
	C122.172310,197.652710 122.172310,178.389389 122.172310,157.679291 
	C127.362213,165.676834 131.914154,172.655548 136.429886,179.657593 
	C145.244492,193.325424 154.056686,206.994873 162.824570,220.692657 
	C164.341766,223.062912 165.635681,225.576126 167.020905,228.669220 
	C167.188538,229.846664 167.368011,230.378220 167.547470,230.909760 
	C167.575455,237.256882 167.603455,243.604019 167.259949,250.498749 
	C165.394150,252.049377 163.899841,253.052383 161.879074,254.408752 
	C164.582550,256.679413 166.043335,257.906311 167.504105,259.133209 
	C167.557739,282.949554 167.640396,306.765869 167.657700,330.582245 
	C167.679596,360.731354 167.648331,390.880554 167.399261,421.645966 
	C166.978226,422.590942 167.011185,422.896729 167.257385,423.179596 
	C167.257385,423.179596 167.229752,423.236847 166.961502,423.141388 
	C166.505783,423.010315 166.318329,422.974731 166.130890,422.939148 
	C152.529968,410.968689 139.006241,398.908203 125.255951,387.111877 
	C122.821327,385.023224 121.924980,383.039734 121.935745,379.950195 
	C122.022881,354.957397 121.961296,329.964081 121.926544,304.247986 
	C121.879494,303.351929 121.850990,303.178772 121.822479,303.005585 
M156.286743,263.130341 
	C152.455765,263.838867 150.986893,266.355530 150.402557,269.891327 
	C149.450195,270.107788 148.497833,270.324280 147.545471,270.540741 
	C148.384857,271.811127 149.224258,273.081512 150.650711,275.240387 
	C150.821747,272.581146 150.905151,271.284180 151.740631,269.893829 
	C152.497040,269.923645 153.253433,269.953461 154.128860,270.184448 
	C154.128860,270.184448 154.361801,270.233765 154.361801,270.233765 
	C154.361801,270.233765 153.983215,270.009583 154.014374,269.259460 
	C155.004425,267.166321 155.994492,265.073181 157.592087,263.164001 
	C158.662140,263.630249 159.732193,264.096497 160.963776,264.633118 
	C159.810684,262.851624 158.960037,261.537384 157.630524,259.483337 
	C157.288879,261.433258 157.150452,262.223389 156.286743,263.130341 
M153.329590,343.185913 
	C146.299347,350.210907 139.318390,357.286316 132.211304,364.232697 
	C129.815887,366.573975 129.586807,368.249146 133.213440,369.828705 
	C134.574799,365.855347 141.033783,366.199371 140.939651,361.105194 
	C142.365356,360.299286 144.156784,359.728333 145.330353,358.544739 
	C149.773972,354.063232 154.004486,349.371002 158.348892,344.790039 
	C159.028046,344.073883 159.884552,343.525970 160.769470,342.811066 
	C159.286530,341.858032 158.198257,341.158661 157.270264,340.562286 
	C156.070618,341.328461 154.941803,342.049377 153.329590,343.185913 
M162.477463,261.521393 
	C164.106369,260.065826 164.106369,260.065826 159.227829,257.171021 
	C160.627426,259.230560 161.291016,260.207062 162.477463,261.521393 
z"/>
<path fill="#660E14" opacity="1.000000" stroke="none" 
	d="
M348.405518,230.348694 
	C348.501251,229.877930 348.558868,229.943710 348.894470,230.204132 
	C354.423309,230.597321 356.795135,226.856781 358.895599,223.080093 
	C360.132111,220.856750 360.283997,218.387878 364.033417,218.327225 
	C365.584961,218.302109 367.084290,215.049713 368.709656,213.145187 
	C367.071869,211.988281 365.912903,211.169601 365.129608,210.616287 
	C361.838562,212.924484 358.923767,214.968826 356.008942,217.013153 
	C359.633850,211.124756 363.190826,205.193222 366.897430,199.356705 
	C375.332855,186.073975 383.838623,172.835876 392.337982,159.593903 
	C392.561340,159.245941 393.040375,159.062088 394.077972,158.311081 
	C394.077972,165.305801 394.077972,171.692444 394.079712,178.914368 
	C394.127716,180.498779 394.173920,181.247910 394.220123,181.997040 
	C394.175568,207.022842 394.131012,232.048630 394.078308,257.865356 
	C393.997070,259.098419 393.924011,259.540527 393.570679,260.151733 
	C389.886017,263.687622 386.551849,267.129486 383.054810,270.397064 
	C380.350800,272.923645 381.093140,274.476746 383.746826,275.641541 
	C387.295349,272.979004 390.585480,270.510345 393.875610,268.041687 
	C393.924591,305.623016 394.010498,343.204407 393.912018,380.785370 
	C393.907166,382.635986 392.756256,385.002289 391.356140,386.249908 
	C378.102936,398.059753 364.678955,409.677948 351.310150,421.358154 
	C350.936798,421.684326 350.630371,422.087097 350.040344,422.939636 
	C349.787964,423.425140 349.760925,423.846313 349.760925,423.846313 
	C349.286682,422.108093 348.399384,420.370209 348.398010,418.631592 
	C348.348602,356.692780 348.382416,294.753876 348.400085,232.815002 
	C348.400299,232.149841 348.341248,231.484634 348.405518,230.348694 
M372.618500,366.727478 
	C375.261200,363.620117 377.802032,360.417175 380.589508,357.445587 
	C381.987366,355.955353 383.929749,354.990936 385.453156,353.599579 
	C387.191406,352.012024 388.932800,350.343994 390.220245,348.409698 
	C390.517456,347.963165 388.974579,346.291840 388.076538,344.862885 
	C384.186707,348.228210 380.666870,350.931671 377.566711,354.052094 
	C374.490051,357.148834 371.835815,360.665222 368.307739,364.067078 
	C365.485596,366.525909 362.663452,368.984741 359.403931,371.824677 
	C361.299347,373.559418 362.623840,374.771637 363.325226,375.413574 
	C365.136414,373.687439 366.313202,372.584991 367.468384,371.460327 
	C368.986633,369.982117 370.487854,368.486389 372.618500,366.727478 
z"/>
<path fill="#E51C17" opacity="1.000000" stroke="none" 
	d="
M439.187561,298.595947 
	C437.143311,301.725128 435.401581,304.628143 433.208069,307.136108 
	C432.188934,308.301331 430.137238,308.498932 428.839142,309.503967 
	C427.675812,310.404633 427.021576,311.934937 425.933716,312.967224 
	C423.981689,314.819580 421.872925,316.506714 419.474060,318.568512 
	C417.340637,317.110565 415.759705,315.832184 418.936523,312.861359 
	C424.335907,307.812012 429.280121,302.278870 434.532104,297.066376 
	C435.509064,296.096771 437.033997,295.679291 438.678864,295.005829 
	C439.136139,296.072449 439.220642,297.140289 439.187561,298.595947 
z"/>
<path fill="#E51C17" opacity="1.000000" stroke="none" 
	d="
M76.845840,185.331146 
	C82.929207,178.574692 88.900688,172.137451 94.884186,165.687241 
	C96.372719,167.006744 97.464836,167.974854 99.237267,169.546021 
	C96.760239,171.184433 94.514656,172.581253 92.374397,174.124176 
	C91.361565,174.854324 90.204384,175.703461 89.707260,176.774658 
	C87.513947,181.500824 84.771477,185.524414 79.339409,186.943451 
	C78.937187,187.048523 78.771797,188.060165 78.223083,188.520508 
	C77.608696,187.918457 77.267532,187.446243 76.926376,186.974030 
	C76.862228,186.532806 76.798088,186.091568 76.845840,185.331146 
z"/>
<path fill="#E42824" opacity="1.000000" stroke="none" 
	d="
M86.991867,412.991608 
	C88.595238,416.862457 85.653999,418.212677 83.257324,420.006927 
	C82.304443,420.720306 81.767448,421.989227 81.036186,423.380646 
	C75.851173,425.290375 76.488396,421.771057 76.755615,418.350830 
	C80.007050,416.347687 83.129166,414.679138 86.625626,413.005310 
	C86.999977,413.000000 86.991867,412.991608 86.991867,412.991608 
z"/>
<path fill="#E32824" opacity="1.000000" stroke="none" 
	d="
M236.907959,336.466400 
	C238.288239,336.226318 240.527451,335.793762 241.076904,336.565033 
	C243.358337,339.767487 246.351715,340.075317 249.845398,340.014618 
	C258.496033,339.864258 267.150757,339.949615 276.252136,339.947021 
	C275.348969,340.279480 273.999908,340.875854 272.645813,340.887421 
	C263.060669,340.969421 253.469528,340.755280 243.891190,341.023804 
	C240.363556,341.122711 238.288528,339.878021 236.907959,336.466400 
z"/>
<path fill="#782D33" opacity="1.000000" stroke="none" 
	d="
M342.308319,74.056725 
	C343.595093,75.407356 344.611816,76.936432 345.267517,77.922554 
	C342.039429,81.605759 338.696777,85.449814 335.286377,89.232796 
	C335.090912,89.449631 334.342712,89.168221 333.544678,89.081017 
	C336.171173,84.107269 339.104706,79.171211 342.308319,74.056725 
z"/>
<path fill="#E41D18" opacity="1.000000" stroke="none" 
	d="
M206.828522,289.429443 
	C208.943939,287.422119 211.107147,285.737823 213.508133,283.868439 
	C214.330978,284.651428 215.443100,285.709686 217.657776,287.817108 
	C214.410263,289.326447 211.802490,290.538452 209.013947,292.029297 
	C208.180893,291.456268 207.528610,290.604370 206.828522,289.429443 
z"/>
<path fill="#8D4C51" opacity="1.000000" stroke="none" 
	d="
M167.649750,258.691956 
	C166.043335,257.906311 164.582550,256.679413 161.879074,254.408752 
	C163.899841,253.052383 165.394150,252.049377 167.186951,250.952026 
	C167.588776,253.322006 167.692093,255.786362 167.649750,258.691956 
z"/>
<path fill="#E41D18" opacity="1.000000" stroke="none" 
	d="
M439.216949,222.568893 
	C437.504730,222.132660 435.918579,221.272766 434.332397,220.412872 
	C435.663208,218.962387 436.994019,217.511902 438.672668,216.031403 
	C439.128021,218.049316 439.235504,220.097275 439.216949,222.568893 
z"/>
<path fill="#E42824" opacity="1.000000" stroke="none" 
	d="
M76.784683,264.245850 
	C77.382050,263.376862 77.839905,262.763184 77.829224,262.777527 
	C78.595833,263.396240 79.577904,264.188843 79.554367,264.169830 
	C79.180611,264.883514 78.391701,266.389893 77.258675,267.942810 
	C76.824760,266.826569 76.734970,265.663849 76.784683,264.245850 
z"/>
<path fill="#BB5A5D" opacity="1.000000" stroke="none" 
	d="
M438.328552,423.976013 
	C438.342651,423.103271 438.656769,422.301544 439.118469,421.215820 
	C439.053619,421.970245 438.841125,423.008606 438.328552,423.976013 
z"/>
<path fill="#E42824" opacity="1.000000" stroke="none" 
	d="
M76.795334,187.154312 
	C77.267532,187.446243 77.608696,187.918457 77.976318,188.696564 
	C78.002792,189.002441 78.000000,189.000000 77.727768,189.006866 
	C77.273560,189.019867 77.091576,189.026001 76.909584,189.032135 
	C76.827820,188.466293 76.746056,187.900436 76.795334,187.154312 
z"/>
<path fill="#8D4C51" opacity="1.000000" stroke="none" 
	d="
M167.882858,230.737961 
	C167.368011,230.378220 167.188538,229.846664 167.063309,229.013733 
	C167.694809,229.055817 168.272049,229.399307 168.869385,229.983139 
	C168.665741,230.337708 168.441986,230.451935 167.882858,230.737961 
z"/>
<path fill="#8D4C51" opacity="1.000000" stroke="none" 
	d="
M167.483383,423.047821 
	C167.011185,422.896729 166.978226,422.590942 167.347198,422.108429 
	C167.615952,422.160797 167.715027,422.362244 167.767883,422.575195 
	C167.793320,422.677643 167.731628,422.801758 167.483383,423.047821 
z"/>
<path fill="#BB5A5D" opacity="1.000000" stroke="none" 
	d="
M350.060852,423.972321 
	C349.760925,423.846313 349.787964,423.425140 349.865692,423.229309 
	C350.253815,423.116699 350.525177,423.269318 350.869446,423.697052 
	C350.774536,423.967957 350.567688,424.033142 350.060852,423.972321 
z"/>
<path fill="#8D4C51" opacity="1.000000" stroke="none" 
	d="
M166.079468,423.166199 
	C166.318329,422.974731 166.505783,423.010315 166.950851,423.171326 
	C166.994705,423.540009 166.780975,423.783234 166.315033,423.942017 
	C166.062836,423.857574 166.028030,423.393280 166.079468,423.166199 
z"/>
<path fill="#BB5A5D" opacity="1.000000" stroke="none" 
	d="
M439.429565,66.947609 
	C439.214905,66.862946 439.149902,66.662468 439.164276,66.157303 
	C439.355499,66.179008 439.467346,66.505402 439.429565,66.947609 
z"/>
<path fill="#E51C17" opacity="1.000000" stroke="none" 
	d="
M76.825592,189.276474 
	C77.091576,189.026001 77.273560,189.019867 77.728630,189.008118 
	C77.800438,189.268341 77.599152,189.534164 77.164948,189.900574 
	C76.868546,189.841049 76.805069,189.680923 76.825592,189.276474 
z"/>
<path fill="#BB5A5D" opacity="1.000000" stroke="none" 
	d="
M346.248505,231.892242 
	C345.926941,231.650131 345.997437,231.365707 346.453369,231.040710 
	C346.830933,231.294479 346.764893,231.577744 346.248505,231.892242 
z"/>
<path fill="#E61C17" opacity="1.000000" stroke="none" 
	d="
M394.549683,182.045135 
	C394.173920,181.247910 394.127716,180.498779 394.148285,179.378632 
	C397.875824,175.837631 401.641724,172.779922 405.173218,169.471954 
	C410.779541,164.220413 416.229279,158.801712 421.109650,154.069946 
	C422.309967,155.400772 423.432526,156.645386 424.618195,157.959976 
	C416.420929,165.794678 407.294128,174.517776 397.834686,183.558807 
	C397.133423,183.211060 396.006348,182.652145 394.549683,182.045135 
z"/>
<path fill="#E51C17" opacity="1.000000" stroke="none" 
	d="
M121.474129,302.994080 
	C121.850990,303.178772 121.879494,303.351929 121.867355,303.785797 
	C117.293854,307.372589 112.617249,310.103333 109.257179,315.252136 
	C105.365547,321.215485 99.430237,325.845154 94.432610,331.001709 
	C90.288322,328.887146 90.494179,326.867004 93.181091,324.279419 
	C101.414879,316.349945 109.554855,308.323120 117.656868,300.406891 
	C118.955719,301.371277 120.040749,302.176910 121.474129,302.994080 
z"/>
<path fill="#E61C17" opacity="1.000000" stroke="none" 
	d="
M419.554504,398.428345 
	C413.959656,403.787292 408.580078,408.863007 402.900970,414.221313 
	C399.873169,413.146179 398.881073,411.976685 402.156555,408.688385 
	C410.257690,400.555634 417.932526,391.998230 426.525513,382.813171 
	C427.961761,385.291748 428.692810,386.553406 429.295715,387.593842 
	C426.443329,390.753204 423.106537,394.449127 419.554504,398.428345 
z"/>
<path fill="#E61C17" opacity="1.000000" stroke="none" 
	d="
M306.071960,273.985718 
	C304.549652,275.711151 303.236542,277.199371 302.202667,278.861328 
	C299.891235,282.576843 298.783905,286.718048 292.991608,287.759399 
	C289.974152,288.301941 287.737793,293.189087 284.958466,296.328583 
	C284.070526,295.398132 283.087799,294.368317 282.312164,293.555511 
	C291.023193,284.100098 299.525269,274.871490 307.814789,265.873596 
	C309.557343,267.991577 310.532440,269.176788 311.733521,270.636658 
	C310.516235,271.365967 308.462036,272.596649 306.071960,273.985718 
z"/>
<path fill="#711A20" opacity="1.000000" stroke="none" 
	d="
M355.801025,217.276703 
	C358.923767,214.968826 361.838562,212.924484 365.129608,210.616287 
	C365.912903,211.169601 367.071869,211.988281 368.709656,213.145187 
	C367.084290,215.049713 365.584961,218.302109 364.033417,218.327225 
	C360.283997,218.387878 360.132111,220.856750 358.895599,223.080093 
	C356.795135,226.856781 354.423309,230.597321 348.935181,230.220123 
	C350.957825,225.830551 353.275452,221.685394 355.801025,217.276703 
z"/>
<path fill="#711A20" opacity="1.000000" stroke="none" 
	d="
M172.151947,166.973709 
	C177.714600,160.228424 183.277237,153.483139 188.903214,146.661041 
	C192.247147,149.824509 193.422745,150.936661 193.553787,151.060638 
	C189.918167,155.670532 186.556564,160.142410 182.958542,164.415253 
	C180.858063,166.909714 178.379669,169.085953 176.011459,171.750427 
	C175.951630,172.095490 175.484543,172.035431 175.144379,171.702637 
	C173.920105,169.904465 173.036011,168.439087 172.151947,166.973709 
z"/>
<path fill="#E51C17" opacity="1.000000" stroke="none" 
	d="
M104.002769,84.988403 
	C101.019081,87.990967 98.233017,91.232933 94.984467,93.914650 
	C92.696022,95.803795 89.779305,96.931854 87.143120,98.399750 
	C87.698685,99.239067 88.254257,100.078377 88.809822,100.917694 
	C87.559357,99.778816 86.308891,98.639938 84.140793,96.665314 
	C89.438286,91.678078 94.417252,86.990730 99.993744,82.270172 
	C101.728432,83.154106 102.865601,84.071259 104.002769,84.988403 
z"/>
<path fill="#711A20" opacity="1.000000" stroke="none" 
	d="
M122.084885,217.192932 
	C126.419136,212.864258 130.665955,208.812500 135.123016,204.560150 
	C136.006195,205.598969 137.102249,206.888199 138.160782,208.133301 
	C135.843613,213.540558 127.920937,213.696899 126.808220,220.442398 
	C126.636864,221.481201 124.248398,222.154266 122.460068,222.590057 
	C121.970490,220.798874 121.906136,219.414108 121.841782,218.029327 
	C121.893677,217.842819 121.945572,217.656326 122.084885,217.192932 
z"/>
<path fill="#E51C17" opacity="1.000000" stroke="none" 
	d="
M142.023773,125.964325 
	C137.296112,130.374817 132.568451,134.785309 127.795181,139.238327 
	C124.551773,136.717255 124.519485,136.654266 127.470131,133.564804 
	C131.089371,129.775253 134.761810,126.036499 138.997986,122.275116 
	C140.397751,123.504410 141.210770,124.734367 142.023773,125.964325 
z"/>
<path fill="#E41D18" opacity="1.000000" stroke="none" 
	d="
M121.557350,218.188965 
	C121.906136,219.414108 121.970490,220.798874 122.095100,222.596741 
	C122.090614,223.762131 122.025871,224.514450 121.888931,225.638504 
	C118.056992,228.729370 114.297272,231.448502 110.216698,234.399689 
	C108.058731,233.396774 107.461502,231.857391 109.891411,229.544098 
	C113.745209,225.875244 117.484932,222.086578 121.557350,218.188965 
z"/>
<path fill="#731A20" opacity="1.000000" stroke="none" 
	d="
M359.496094,144.909561 
	C358.063446,144.041702 356.903778,142.996307 355.499939,141.730759 
	C359.778198,137.192902 363.613312,133.014206 367.604858,128.990677 
	C368.347931,128.241653 369.719666,128.116287 370.990417,127.989937 
	C370.020569,130.095566 368.861603,131.914352 367.164185,133.980896 
	C366.426056,134.508911 366.226379,134.789185 366.026733,135.069473 
	C366.026733,135.069473 366.018005,135.001038 365.875427,135.073273 
	C365.649506,135.229568 365.480164,135.358582 365.496735,135.390335 
	C365.598785,135.585388 365.742859,135.758499 365.872925,135.938904 
	C363.838287,138.869934 361.803680,141.800980 359.496094,144.909561 
z"/>
<path fill="#731A20" opacity="1.000000" stroke="none" 
	d="
M104.317215,85.009155 
	C102.865601,84.071259 101.728432,83.154106 100.297211,82.116211 
	C100.003151,81.995468 99.968666,81.524551 99.949471,81.289665 
	C102.892548,78.448410 105.893257,75.884071 108.804558,73.221962 
	C111.011093,71.204285 113.152824,70.088310 116.439339,73.974083 
	C113.746704,75.526138 110.914421,76.609619 108.859299,78.526360 
	C107.360321,79.924400 106.885635,82.420677 105.912796,84.837372 
	C105.458054,85.174889 105.044853,85.102402 104.317215,85.009155 
z"/>
<path fill="#711B21" opacity="1.000000" stroke="none" 
	d="
M393.961853,267.769714 
	C390.585480,270.510345 387.295349,272.979004 383.746826,275.641541 
	C381.093140,274.476746 380.350800,272.923645 383.054810,270.397064 
	C386.551849,267.129486 389.886017,263.687622 393.634888,260.585938 
	C394.052307,262.883118 394.125183,264.915131 394.198059,266.947174 
	C394.148071,267.130707 394.098083,267.314240 393.961853,267.769714 
z"/>
<path fill="#E51C17" opacity="1.000000" stroke="none" 
	d="
M394.480591,266.785034 
	C394.125183,264.915131 394.052307,262.883118 393.915222,260.416870 
	C393.924011,259.540527 393.997070,259.098419 394.149536,258.328979 
	C397.906952,255.262604 401.584900,252.523560 405.301788,249.755554 
	C405.999268,250.496338 406.948975,251.505005 408.017487,252.639877 
	C403.137115,256.687714 397.938354,260.711670 394.480591,266.785034 
z"/>
<path fill="#DB1D18" opacity="1.000000" stroke="none" 
	d="
M411.142761,85.941589 
	C416.918304,81.242569 423.063477,76.609886 429.554932,71.932098 
	C427.284851,75.169609 424.875824,78.651085 421.982452,81.668053 
	C419.898224,83.841286 417.168640,85.395584 414.450470,87.433182 
	C413.809357,87.122192 412.660889,86.565063 411.142761,85.941589 
z"/>
<path fill="#731A20" opacity="1.000000" stroke="none" 
	d="
M142.259445,125.988930 
	C141.210770,124.734367 140.397751,123.504410 139.302429,122.127487 
	C139.021225,121.813721 139.022354,121.646912 139.033508,121.229965 
	C143.391739,117.178383 147.739929,113.376938 152.118546,109.548904 
	C152.991531,110.484543 153.936142,111.496933 154.269516,111.854240 
	C150.573227,116.320618 146.835892,120.836601 143.032379,125.708862 
	C142.966217,126.065140 142.495117,126.013535 142.259445,125.988930 
z"/>
<path fill="#E32824" opacity="1.000000" stroke="none" 
	d="
M246.898529,333.591614 
	C245.583801,334.465698 244.493729,335.055084 243.403671,335.644470 
	C243.197083,334.374969 242.359207,332.468414 242.889709,331.942780 
	C245.653214,329.204437 248.650925,326.653809 251.841553,324.431976 
	C252.571121,323.923920 254.383759,324.971191 256.812195,325.583679 
	C252.897049,328.704498 250.010101,331.005737 246.898529,333.591614 
z"/>
<path fill="#E51C17" opacity="1.000000" stroke="none" 
	d="
M171.902954,166.914490 
	C173.036011,168.439087 173.920105,169.904465 174.910370,171.676453 
	C172.355026,173.916153 169.693512,175.849243 166.400452,178.241028 
	C165.881470,177.714706 164.879913,176.698959 163.686264,175.488388 
	C166.335419,172.486542 168.592194,169.929321 171.006561,167.039398 
	C171.327423,166.756226 171.490692,166.805756 171.902954,166.914490 
z"/>
<path fill="#E42824" opacity="1.000000" stroke="none" 
	d="
M90.008064,410.007904 
	C89.758835,406.175446 91.349922,403.725220 95.629700,403.008148 
	C96.000023,403.000000 95.992188,402.992676 95.992188,402.992676 
	C95.260109,405.307159 94.666107,407.683868 93.675156,409.881622 
	C93.485367,410.302551 91.732895,410.018860 90.350677,410.030121 
	C90.000000,410.000000 90.008064,410.007904 90.008064,410.007904 
z"/>
<path fill="#E42824" opacity="1.000000" stroke="none" 
	d="
M96.003883,403.003906 
	C96.568199,401.753082 96.936775,400.352112 97.747559,399.288147 
	C98.442345,398.376404 99.643417,397.850494 100.782181,397.038727 
	C101.451843,397.679169 102.368446,398.555756 103.567131,399.702118 
	C101.061890,400.879028 98.888901,401.899841 96.354050,402.956665 
	C95.992188,402.992676 96.000023,403.000000 96.003883,403.003906 
z"/>
<path fill="#E42824" opacity="1.000000" stroke="none" 
	d="
M87.004013,413.004059 
	C87.759567,412.012115 88.511093,411.016083 89.635345,410.013977 
	C90.008064,410.007904 90.000000,410.000000 89.995834,409.995972 
	C90.224960,411.044220 90.458267,412.096436 90.790817,413.596313 
	C89.597977,413.388519 88.630798,413.220032 87.327744,413.021576 
	C86.991867,412.991608 86.999977,413.000000 87.004013,413.004059 
z"/>
<path fill="#DB1D18" opacity="1.000000" stroke="none" 
	d="
M430.224609,71.902878 
	C430.382080,71.293892 430.874451,70.680489 431.683990,70.022858 
	C431.520599,70.618576 431.040070,71.258522 430.224609,71.902878 
z"/>
<path fill="#670F15" opacity="1.000000" stroke="none" 
	d="
M366.263428,134.962463 
	C366.226379,134.789185 366.426056,134.508911 366.873535,134.136963 
	C366.914246,134.315338 366.707184,134.585403 366.263428,134.962463 
z"/>
<path fill="#670F15" opacity="1.000000" stroke="none" 
	d="
M365.941010,135.715897 
	C365.742859,135.758499 365.598785,135.585388 365.496735,135.390335 
	C365.480164,135.358582 365.649506,135.229568 365.906281,135.088715 
	C366.079681,135.031906 366.009094,135.492889 365.941010,135.715897 
z"/>
<path fill="#701B21" opacity="1.000000" stroke="none" 
	d="
M254.396973,248.712860 
	C252.454437,250.499619 250.725952,252.012070 248.853790,253.650253 
	C244.505768,251.694153 246.720184,249.679214 248.895706,247.596832 
	C255.798309,240.989883 262.677002,234.357956 269.731476,227.575562 
	C270.843903,228.463242 271.979858,229.369690 272.871002,230.080780 
	C271.163635,231.962784 269.551544,235.269730 267.808868,235.340027 
	C264.255524,235.483383 263.983734,237.740433 263.001312,239.848099 
	C261.753418,242.525314 260.709534,245.457947 257.905701,244.684830 
	C256.469727,246.320877 255.540359,247.379715 254.396973,248.712860 
z"/>
<path fill="#6F1A20" opacity="1.000000" stroke="none" 
	d="
M212.998779,206.996338 
	C215.837143,203.326996 218.494293,199.496307 221.571945,196.040039 
	C223.977875,193.338104 226.905457,191.100693 229.707489,188.560562 
	C231.264328,189.244095 232.859253,189.944336 234.490906,190.660721 
	C233.066040,192.234970 231.783798,194.932358 230.356110,195.011688 
	C223.451599,195.395264 224.736206,205.309708 217.689651,205.487961 
	C216.890366,205.508179 217.225281,210.305359 213.330841,207.781006 
	C212.999710,207.332687 212.999252,207.164505 212.998779,206.996338 
z"/>
<path fill="#701B21" opacity="1.000000" stroke="none" 
	d="
M308.998779,189.998169 
	C309.979980,188.185806 310.703369,186.160965 311.989746,184.600128 
	C316.198578,179.493195 320.612366,174.555176 324.947357,169.552231 
	C325.361542,169.966644 325.775726,170.381042 326.189911,170.795441 
	C327.293823,171.845001 328.397736,172.894562 330.151581,174.562042 
	C327.374481,176.044327 324.518188,177.051437 322.367798,178.886017 
	C320.747650,180.268219 319.819824,182.622528 318.957916,184.699371 
	C317.166107,189.016937 312.575867,191.882675 309.296509,190.144653 
	C309.000000,190.000000 308.998779,189.998169 308.998779,189.998169 
z"/>
<path fill="#711B21" opacity="1.000000" stroke="none" 
	d="
M212.627731,207.001221 
	C212.999252,207.164505 212.999710,207.332687 213.001526,207.753174 
	C213.387665,208.882050 213.772446,209.758621 214.200500,210.733765 
	C212.857300,211.941452 211.385666,213.264603 209.386948,215.061676 
	C208.603577,213.662796 206.967239,211.675629 207.323456,211.208740 
	C208.604050,209.530289 210.557495,208.365204 212.627731,207.001221 
z"/>
<path fill="#711B21" opacity="1.000000" stroke="none" 
	d="
M309.000610,190.000916 
	C311.064972,193.752075 307.152740,195.139847 305.628204,198.388489 
	C304.643005,196.694077 302.967621,194.698944 303.312439,194.247772 
	C304.602417,192.559952 306.553467,191.377380 308.627686,190.001770 
	C308.998779,189.998169 309.000000,190.000000 309.000610,190.000916 
z"/>
<path fill="#701B21" opacity="1.000000" stroke="none" 
	d="
M153.571289,342.978088 
	C154.941803,342.049377 156.070618,341.328461 157.270264,340.562286 
	C158.198257,341.158661 159.286530,341.858032 160.769470,342.811066 
	C159.884552,343.525970 159.028046,344.073883 158.348892,344.790039 
	C154.004486,349.371002 149.773972,354.063232 145.330353,358.544739 
	C144.156784,359.728333 142.365356,360.299286 140.939651,361.105194 
	C141.033783,366.199371 134.574799,365.855347 133.213440,369.828705 
	C129.586807,368.249146 129.815887,366.573975 132.211304,364.232697 
	C139.318390,357.286316 146.299347,350.210907 153.571289,342.978088 
z"/>
<path fill="#8D4C51" opacity="1.000000" stroke="none" 
	d="
M156.984543,262.980042 
	C155.994492,265.073181 155.004425,267.166321 154.006927,269.629456 
	C153.999481,269.999451 154.009842,269.983276 154.009842,269.983276 
	C153.253433,269.953461 152.497040,269.923645 151.371094,269.947876 
	C151.001556,270.001923 151.014664,270.017792 151.014664,270.017792 
	C150.986893,266.355530 152.455765,263.838867 156.642441,263.063965 
	C156.998138,262.997559 156.984543,262.980042 156.984543,262.980042 
z"/>
<path fill="#8D4C51" opacity="1.000000" stroke="none" 
	d="
M150.995056,269.994568 
	C150.905151,271.284180 150.821747,272.581146 150.650711,275.240387 
	C149.224258,273.081512 148.384857,271.811127 147.545471,270.540771 
	C148.497833,270.324280 149.450195,270.107788 150.708618,269.954559 
	C151.014664,270.017792 151.001556,270.001923 150.995056,269.994568 
z"/>
<path fill="#8D4C51" opacity="1.000000" stroke="none" 
	d="
M157.005081,263.005554 
	C157.150452,262.223389 157.288879,261.433258 157.630524,259.483337 
	C158.960037,261.537384 159.810684,262.851624 160.963776,264.633118 
	C159.732193,264.096497 158.662140,263.630249 157.288315,263.072021 
	C156.984543,262.980042 156.998138,262.997559 157.005081,263.005554 
z"/>
<path fill="#8D4C51" opacity="1.000000" stroke="none" 
	d="
M162.216034,261.352478 
	C161.291016,260.207062 160.627426,259.230560 159.227829,257.171021 
	C164.106369,260.065826 164.106369,260.065826 162.216034,261.352478 
z"/>
<path fill="#8D4C51" opacity="1.000000" stroke="none" 
	d="
M153.991348,270.004517 
	C153.983215,270.009583 154.361801,270.233765 154.361801,270.233765 
	C154.361801,270.233765 154.128860,270.184448 154.069351,270.083862 
	C154.009842,269.983276 153.999481,269.999451 153.991348,270.004517 
z"/>
<path fill="#6F1A20" opacity="1.000000" stroke="none" 
	d="
M368.996338,363.997589 
	C371.835815,360.665222 374.490051,357.148834 377.566711,354.052094 
	C380.666870,350.931671 384.186707,348.228210 388.076538,344.862885 
	C388.974579,346.291840 390.517456,347.963165 390.220245,348.409698 
	C388.932800,350.343994 387.191406,352.012024 385.453156,353.599579 
	C383.929749,354.990936 381.987366,355.955353 380.589508,357.445587 
	C377.802032,360.417175 375.261200,363.620117 372.051697,366.690918 
	C370.655365,365.768768 369.825836,364.883179 368.996338,363.997589 
z"/>
<path fill="#701B21" opacity="1.000000" stroke="none" 
	d="
M368.652039,364.032349 
	C369.825836,364.883179 370.655365,365.768768 371.740631,366.826294 
	C370.487854,368.486389 368.986633,369.982117 367.468384,371.460327 
	C366.313202,372.584991 365.136414,373.687439 363.325226,375.413574 
	C362.623840,374.771637 361.299347,373.559418 359.403931,371.824677 
	C362.663452,368.984741 365.485596,366.525909 368.652039,364.032349 
z"/>
</svg>